<svg width="48" height="34" viewBox="0 0 48 34" fill="none" xmlns="http://www.w3.org/2000/svg">
<path d="M7.07076 25.1763L6.44629 26.8459H7.6896L7.07076 25.1763Z" fill="#505861"/>
<path d="M0 19.8638V32.3371C0 33.1279 0.629625 33.769 1.40625 33.769H14.125V18.4319H1.40625C0.629625 18.4319 0 19.073 0 19.8638ZM3.59578 29.1016L6.06 22.5136C6.06272 22.5064 6.06553 22.4991 6.06844 22.4919C6.23597 22.0749 6.63019 21.8051 7.07278 21.8046H7.07381C7.51594 21.8046 7.91016 22.0735 8.07834 22.49C8.08181 22.4986 8.08519 22.5073 8.08838 22.516L10.5302 29.1043C10.713 29.5975 10.4685 30.1483 9.98409 30.3345C9.87506 30.3763 9.76322 30.3961 9.65325 30.3962C9.27441 30.3962 8.91769 30.1607 8.77603 29.7784L8.39681 28.7552H5.73178L5.34806 29.7812C5.16384 30.2739 4.62206 30.5212 4.13831 30.3335C3.65437 30.1458 3.41147 29.5943 3.59578 29.1016Z" fill="#505861"/>
<path d="M40.5422 23.7139H39.6211V28.4819C39.9815 28.4795 40.3588 28.4763 40.5803 28.4723C41.737 28.4517 42.2548 27.2661 42.2548 26.1004C42.2548 25.5405 42.1313 23.7139 40.5422 23.7139Z" fill="#505861"/>
<path d="M46.5938 18.4319H33.875V33.769H46.5938C47.3704 33.769 48 33.1279 48 32.3371V19.8638C48 19.073 47.3704 18.4319 46.5938 18.4319ZM40.6125 30.3812C40.0822 30.3906 38.7434 30.3958 38.6867 30.396C38.6856 30.396 38.6844 30.396 38.6832 30.396C38.4352 30.396 38.1973 30.296 38.0215 30.1177C37.8448 29.9386 37.7457 29.6952 37.7457 29.4415V22.7593C37.7457 22.2321 38.1654 21.8047 38.6832 21.8047H40.5418C42.6876 21.8047 44.1294 23.531 44.1294 26.1004C44.1294 28.5446 42.6504 30.345 40.6125 30.3812Z" fill="#505861"/>
<path d="M29.6562 0.231018H18.3438C17.5671 0.231018 16.9375 0.872121 16.9375 1.6629V15.5681H31.0625V1.6629C31.0624 0.872121 30.4329 0.231018 29.6562 0.231018ZM28.4743 4.75721L27.1906 11.3248C27.1826 11.3658 27.1719 11.4062 27.1587 11.4458C27.01 11.891 26.5999 12.1921 26.1382 12.1954C26.1358 12.1954 26.1333 12.1954 26.1308 12.1954C25.6721 12.1954 25.2617 11.9007 25.1079 11.46C25.1034 11.4472 25.0993 11.4344 25.0953 11.4214L23.9997 7.80006L22.8991 11.4206C22.8965 11.4289 22.8939 11.4372 22.8912 11.4454C22.7427 11.8907 22.3326 12.1919 21.8708 12.1952C21.8683 12.1952 21.8657 12.1952 21.8632 12.1952C21.4045 12.1952 20.9941 11.9005 20.8403 11.4598C20.825 11.4159 20.8129 11.3711 20.804 11.3255L19.5254 4.74365C19.4249 4.22645 19.7552 3.72424 20.2632 3.62201C20.7711 3.51977 21.2643 3.85607 21.3647 4.37327L22.0329 7.81294L23.0831 4.35819C23.1632 3.97664 23.4681 3.6747 23.8603 3.61456C24.3195 3.54411 24.7592 3.8261 24.8957 4.27752L25.9653 7.81228L26.6352 4.38444C26.7362 3.86734 27.2299 3.53151 27.7377 3.63461C28.2456 3.73761 28.5753 4.24011 28.4743 4.75721Z" fill="#505861"/>
<path d="M16.9375 33.769H31.0625V18.4319H16.9375V33.769ZM21.2447 27.7463C21.6283 27.3923 22.2212 27.4218 22.5689 27.8125C22.9449 28.235 23.5382 28.4872 24.156 28.4872C24.7187 28.4872 25.127 28.1456 25.1826 27.8291C25.2557 27.4123 24.6022 27.1323 24.4001 27.0564C23.3809 26.6737 22.4758 26.2634 22.4377 26.2462C22.3926 26.2256 22.3491 26.2016 22.3077 26.1741C21.578 25.6897 21.2021 24.8404 21.3266 23.9576C21.4588 23.0199 22.1303 22.2565 23.0791 21.9655C24.8371 21.4261 26.3948 22.3589 26.7367 23.0102C26.9808 23.4752 26.8085 24.0536 26.3519 24.302C25.9453 24.5231 25.4505 24.4085 25.1746 24.0525C25.0609 23.9653 24.4463 23.5401 23.6199 23.7935C23.2652 23.9024 23.196 24.1342 23.1826 24.2289C23.1719 24.3047 23.1737 24.4392 23.2885 24.5415C23.5338 24.6508 24.2651 24.9709 25.049 25.2653C26.77 25.9117 27.1999 27.1869 27.0285 28.1648C26.8017 29.458 25.5936 30.3965 24.1561 30.3965C23.001 30.3965 21.9161 29.922 21.1797 29.0947C20.8319 28.704 20.861 28.1004 21.2447 27.7463Z" fill="#505861"/>
</svg>
