<svg width="34" height="21" viewBox="0 0 34 21" xmlns="http://www.w3.org/2000/svg">
<path d="M33.6396 12.6238L31.4796 5.12C31.0554 3.47827 30.017 2.06212 28.5787 1.16399C27.1404 0.265862 25.4122 -0.0456619 23.7509 0.293749C22.6475 0.563915 21.6395 1.1321 20.8371 1.93625H13.0746C12.2782 1.13014 11.2732 0.561441 10.1721 0.293749C8.50059 -0.0678722 6.75396 0.233072 5.29984 1.13324C3.84572 2.03341 2.79752 3.4626 2.37586 5.12L0.463364 11.735C-0.470386 15.0087 0.395864 17.9675 2.71336 19.4412C3.43875 19.9172 4.26059 20.2265 5.11979 20.347C5.97899 20.4674 6.85421 20.396 7.68251 20.1378C8.51081 19.8797 9.27162 19.4412 9.91022 18.8539C10.5488 18.2666 11.0494 17.5451 11.3759 16.7413C11.7813 15.769 12.4634 14.9373 13.3374 14.3493C14.2113 13.7613 15.2388 13.4429 16.2921 13.4337H17.7996C18.7908 13.4435 19.7572 13.744 20.5792 14.2979C21.4011 14.8519 22.0424 15.635 22.4234 16.55C22.96 17.8847 23.9545 18.9845 25.2286 19.6525C26.5026 20.3204 27.9729 20.5128 29.3759 20.195C30.1494 20.0008 30.8755 19.6513 31.5098 19.1678C32.1441 18.6843 32.6735 18.0769 33.0659 17.3825C33.4738 16.6675 33.7347 15.8783 33.8332 15.0611C33.9317 14.2438 33.8659 13.4152 33.6396 12.6238V12.6238ZM11.3759 9.3725H10.2509V10.4975C10.2509 10.7959 10.1323 11.082 9.92136 11.293C9.71038 11.504 9.42423 11.6225 9.12586 11.6225C8.8275 11.6225 8.54135 11.504 8.33037 11.293C8.11939 11.082 8.00086 10.7959 8.00086 10.4975V9.3725H6.87586C6.5775 9.3725 6.29135 9.25397 6.08037 9.04299C5.86939 8.83202 5.75086 8.54587 5.75086 8.2475C5.75086 7.94913 5.86939 7.66298 6.08037 7.45201C6.29135 7.24103 6.5775 7.1225 6.87586 7.1225H8.00086V5.9975C8.00086 5.69913 8.11939 5.41298 8.33037 5.20201C8.54135 4.99103 8.8275 4.8725 9.12586 4.8725C9.42423 4.8725 9.71038 4.99103 9.92136 5.20201C10.1323 5.41298 10.2509 5.69913 10.2509 5.9975V7.1225H11.3759C11.6742 7.1225 11.9604 7.24103 12.1714 7.45201C12.3823 7.66298 12.5009 7.94913 12.5009 8.2475C12.5009 8.54587 12.3823 8.83202 12.1714 9.04299C11.9604 9.25397 11.6742 9.3725 11.3759 9.3725ZM27.9246 9.125C28.0301 9.22958 28.1138 9.35401 28.1709 9.4911C28.228 9.62819 28.2574 9.77524 28.2574 9.92375C28.2574 10.0723 28.228 10.2193 28.1709 10.3564C28.1138 10.4935 28.0301 10.6179 27.9246 10.7225C27.82 10.8279 27.6956 10.9116 27.5585 10.9688C27.4214 11.0259 27.2744 11.0553 27.1259 11.0553C26.9774 11.0553 26.8303 11.0259 26.6932 10.9688C26.5561 10.9116 26.4317 10.8279 26.3271 10.7225L25.4384 9.8225L24.5496 10.7225C24.445 10.8279 24.3206 10.9116 24.1835 10.9688C24.0464 11.0259 23.8994 11.0553 23.7509 11.0553C23.6024 11.0553 23.4553 11.0259 23.3182 10.9688C23.1811 10.9116 23.0567 10.8279 22.9521 10.7225C22.8467 10.6179 22.763 10.4935 22.7059 10.3564C22.6487 10.2193 22.6193 10.0723 22.6193 9.92375C22.6193 9.77524 22.6487 9.62819 22.7059 9.4911C22.763 9.35401 22.8467 9.22958 22.9521 9.125L23.8521 8.23625L22.9521 7.3475C22.7403 7.13566 22.6213 6.84834 22.6213 6.54875C22.6213 6.24916 22.7403 5.96184 22.9521 5.75C23.164 5.53816 23.4513 5.41915 23.7509 5.41915C24.0505 5.41915 24.3378 5.53816 24.5496 5.75L25.4384 6.65L26.3271 5.75C26.539 5.53816 26.8263 5.41915 27.1259 5.41915C27.4255 5.41915 27.7128 5.53816 27.9246 5.75C28.1365 5.96184 28.2555 6.24916 28.2555 6.54875C28.2555 6.84834 28.1365 7.13566 27.9246 7.3475L27.0246 8.23625L27.9246 9.125Z"/>
</svg>