<svg width="25" height="35" viewBox="0 0 25 35" fill="none" xmlns="http://www.w3.org/2000/svg">
<path d="M4.66211 11.0968L11.9442 3.8147C8.23801 4.49026 5.33767 7.3906 4.66211 11.0968Z" fill="#505861"/>
<path d="M4.51074 25.9602C4.51634 30.9501 8.56013 34.9939 13.55 34.9995H15.9605C20.9504 34.9939 24.9942 30.9501 24.9998 25.9602V16.9208H17.0802C16.8096 17.984 15.8523 18.7282 14.7553 18.7282C13.6582 18.7282 12.7009 17.984 12.4303 16.9208H4.51074V25.9602Z" fill="#505861"/>
<path d="M12.3456 13.5544L10.1846 15.7154H12.3456V13.5544Z" fill="#505861"/>
<path d="M13.5498 11.4972V16.3182C13.5498 16.9839 14.0894 17.5235 14.755 17.5235C15.4207 17.5235 15.9603 16.9839 15.9603 16.3182V11.4972C15.9603 10.8316 15.4207 10.292 14.755 10.292C14.0894 10.292 13.5498 10.8316 13.5498 11.4972Z" fill="#505861"/>
<path d="M4.51074 15.466L14.1527 5.82404V3.66309H13.7995L4.51074 12.9519V15.466Z" fill="#505861"/>
<path d="M17.1653 11.4972V15.7155H24.9994V12.7024C24.9938 7.71248 20.95 3.66875 15.9601 3.66309H15.3574V9.17227C16.4185 9.44622 17.1612 10.4014 17.1653 11.4972Z" fill="#505861"/>
<path d="M12.3452 11.4973C12.3493 10.4015 13.092 9.44637 14.1531 9.17242V7.52844L5.96582 15.7157H8.47998L12.3452 11.8505V11.4973Z" fill="#505861"/>
<path d="M6.31847 3.66325C6.65127 3.66325 6.92112 3.39346 6.92112 3.0606V0.650136C6.92112 0.31734 6.65133 0.0474854 6.31847 0.0474854C5.98568 0.0474854 5.71582 0.317272 5.71582 0.650136V3.0606C5.71589 3.3934 5.98568 3.66325 6.31847 3.66325Z" fill="#505861"/>
<path d="M3.48155 4.08951C3.71803 4.31786 4.0939 4.31465 4.32634 4.08214C4.55879 3.8497 4.56206 3.47382 4.33372 3.23735L2.62891 1.53255C2.47764 1.37588 2.25352 1.31308 2.04285 1.36824C1.83218 1.42339 1.6676 1.58791 1.61244 1.79865C1.55728 2.00939 1.62008 2.23344 1.77675 2.38471L3.48155 4.08951Z" fill="#505861"/>
<path d="M0.894643 6.67619H3.30511C3.6379 6.67619 3.90776 6.4064 3.90776 6.07354C3.90776 5.74074 3.63797 5.47089 3.30511 5.47089H0.894643C0.561847 5.47089 0.291992 5.74067 0.291992 6.07354C0.291992 6.4064 0.561847 6.67619 0.894643 6.67619Z" fill="#505861"/>
</svg>
