<svg width="44" height="44" viewBox="0 0 44 44" fill="none" xmlns="http://www.w3.org/2000/svg">
<g clip-path="url(#clip0_344_66584)">
<path fill-rule="evenodd" clip-rule="evenodd" d="M35.6582 15.5608V28.4392C35.6558 28.8334 35.8919 29.1899 36.2558 29.3414C36.6197 29.4929 37.0391 29.4094 37.3171 29.13L43.7155 22.6908C44.0949 22.308 44.0949 21.691 43.7155 21.3082L37.3171 14.8699C37.0391 14.5906 36.6197 14.507 36.2558 14.6585C35.8919 14.8101 35.6558 15.1665 35.6582 15.5608Z" fill="#505861"/>
<path fill-rule="evenodd" clip-rule="evenodd" d="M0.282683 22.6908L6.68106 29.13C6.9588 29.4121 7.37993 29.4972 7.74539 29.3453C8.11095 29.1935 8.34762 28.8349 8.34373 28.4391V15.5607C8.34615 15.1666 8.11 14.8101 7.74612 14.6586C7.38224 14.5071 6.9629 14.5905 6.68484 14.87L0.286465 21.3083C-0.0940128 21.6899 -0.0956935 22.3069 0.282683 22.6908Z" fill="#505861"/>
<path d="M12 28.9287C12.0055 33.7903 15.9452 37.73 20.8068 37.7355H23.1552C28.0168 37.73 31.9565 33.7903 31.9621 28.9287V20.1219H24.2461C23.9825 21.1577 23.0498 21.8827 21.981 21.8827C20.9122 21.8827 19.9795 21.1577 19.7159 20.1219H12V28.9287Z" fill="#505861"/>
<path d="M20.8057 14.8382V19.5352C20.8057 20.1837 21.3314 20.7094 21.9799 20.7094C22.6284 20.7094 23.1541 20.1837 23.1541 19.5352V14.8382C23.1541 14.1896 22.6284 13.6639 21.9799 13.6639C21.3314 13.6639 20.8057 14.1896 20.8057 14.8382Z" fill="#505861"/>
<path d="M24.3297 14.838V18.9479H31.9623V16.0123C31.9568 11.1507 28.0171 7.21096 23.1555 7.20544H22.5684V12.5729C23.6021 12.8398 24.3257 13.7704 24.3297 14.838Z" fill="#505861"/>
<path d="M19.6341 14.838V18.9479H12.0015V16.0123C12.007 11.1507 15.9468 7.21096 20.8084 7.20544H21.3955V12.5729C20.3617 12.8398 19.6381 13.7704 19.6341 14.838Z" fill="#505861"/>
</g>
<defs>
<clipPath id="clip0_344_66584">
<rect width="44" height="44" fill="white"/>
</clipPath>
</defs>
</svg>
