<?xml version="1.0" encoding="utf-8"?><svg xmlns="http://www.w3.org/2000/svg" xmlns:xlink="http://www.w3.org/1999/xlink"><symbol fill="none" viewBox="0 0 48 34" id="control" xmlns="http://www.w3.org/2000/svg"><path d="M7.07 25.176l-.624 1.67H7.69l-.62-1.67z" fill="#505861"/><path d="M0 19.864v12.473c0 .79.63 1.432 1.406 1.432h12.719V18.432H1.406A1.42 1.42 0 000 19.864zm3.596 9.238l2.464-6.588a1.083 1.083 0 011.013-.709 1.082 1.082 0 011.015.711l2.442 6.588a.96.96 0 01-.546 1.23.925.925 0 01-.33.062.938.938 0 01-.878-.618l-.38-1.023H5.733l-.384 1.026a.932.932 0 01-1.21.553.96.96 0 01-.542-1.232zM40.542 23.714h-.92v4.768c.36-.002.737-.006.958-.01 1.157-.02 1.675-1.206 1.675-2.372 0-.56-.124-2.386-1.713-2.386z" fill="#505861"/><path d="M46.594 18.432H33.875v15.337h12.719A1.42 1.42 0 0048 32.337V19.864c0-.791-.63-1.432-1.406-1.432zm-5.982 11.95c-.53.009-1.869.014-1.925.014h-.004a.93.93 0 01-.661-.278.963.963 0 01-.276-.676v-6.683c0-.527.42-.954.937-.954h1.859c2.146 0 3.587 1.726 3.587 4.295 0 2.445-1.479 4.245-3.517 4.281zM29.656.231H18.344a1.42 1.42 0 00-1.407 1.432v13.905h14.125V1.663c0-.79-.63-1.432-1.406-1.432zm-1.182 4.526l-1.283 6.568a1.089 1.089 0 01-1.052.87h-.008a1.088 1.088 0 01-1.036-.774L24 7.801l-1.1 3.62a1.088 1.088 0 01-1.028.775h-.009a1.088 1.088 0 01-1.059-.87l-1.279-6.582a.954.954 0 01.738-1.122.938.938 0 011.102.751l.668 3.44 1.05-3.455a.945.945 0 01.777-.743.936.936 0 011.036.663l1.07 3.534.67-3.428a.938.938 0 011.102-.75.954.954 0 01.736 1.123zM16.938 33.769h14.125V18.432H16.938v15.337zm4.307-6.023a.926.926 0 011.324.067c.376.422.97.674 1.587.674.563 0 .971-.341 1.027-.658.073-.417-.58-.697-.783-.773-1.02-.382-1.924-.793-1.962-.81a.942.942 0 01-.13-.072 2.255 2.255 0 01-.981-2.216c.132-.938.803-1.701 1.752-1.992 1.758-.54 3.316.393 3.658 1.044a.963.963 0 01-.385 1.292.927.927 0 01-1.177-.25 1.756 1.756 0 00-1.555-.258c-.355.108-.424.34-.437.435a.343.343 0 00.105.313c.246.109.977.429 1.761.723 1.721.647 2.15 1.922 1.98 2.9-.227 1.293-1.435 2.232-2.873 2.232-1.155 0-2.24-.475-2.976-1.302a.967.967 0 01.065-1.349z" fill="#505861"/></symbol><symbol viewBox="0 0 34 21" id="joystick" xmlns="http://www.w3.org/2000/svg"><path d="M33.64 12.624L31.48 5.12A6.615 6.615 0 0023.75.294a6.199 6.199 0 00-2.913 1.642h-7.762A6.109 6.109 0 0010.172.294 6.604 6.604 0 002.376 5.12L.463 11.735c-.933 3.274-.067 6.233 2.25 7.706a5.873 5.873 0 008.663-2.7 5.377 5.377 0 014.916-3.307H17.8a5.064 5.064 0 014.623 3.116 6.052 6.052 0 006.953 3.645 5.884 5.884 0 003.69-2.813 6.176 6.176 0 00.574-4.758zM11.376 9.372H10.25v1.126a1.125 1.125 0 01-2.25 0V9.373H6.876a1.125 1.125 0 010-2.25H8V5.996a1.125 1.125 0 112.25 0v1.125h1.125a1.125 1.125 0 010 2.25zm16.549-.247a1.124 1.124 0 010 1.598 1.127 1.127 0 01-1.598 0l-.889-.9-.888.9a1.127 1.127 0 01-1.844-.367 1.123 1.123 0 01.246-1.231l.9-.889-.9-.889A1.13 1.13 0 0124.55 5.75l.888.9.89-.9a1.13 1.13 0 011.597 1.598l-.9.888.9.889z"/></symbol><symbol fill="none" viewBox="0 0 44 44" id="mouse" xmlns="http://www.w3.org/2000/svg"><g clip-path="url(#cclip0_344_66584)" fill="#505861"><path fill-rule="evenodd" clip-rule="evenodd" d="M35.658 15.56v12.88a.97.97 0 001.66.69l6.398-6.44c.379-.382.379-.999 0-1.382l-6.399-6.438a.971.971 0 00-1.659.69zM.283 22.69l6.398 6.44a.97.97 0 001.663-.69V15.56a.97.97 0 00-1.66-.69L.287 21.308a.982.982 0 00-.003 1.383z"/><path d="M12 28.929a8.817 8.817 0 008.807 8.807h2.348a8.817 8.817 0 008.807-8.807v-8.807h-7.716a2.337 2.337 0 01-4.53 0H12v8.807z"/><path d="M20.806 14.838v4.697a1.174 1.174 0 102.348 0v-4.697a1.174 1.174 0 10-2.348 0z"/><path d="M24.33 14.838v4.11h7.632v-2.936a8.817 8.817 0 00-8.806-8.807h-.588v5.368a2.348 2.348 0 011.762 2.265zM19.634 14.838v4.11h-7.633v-2.936a8.817 8.817 0 018.807-8.807h.587v5.368a2.348 2.348 0 00-1.76 2.265z"/></g><defs><clipPath id="cclip0_344_66584"><path fill="#fff" d="M0 0h44v44H0z"/></clipPath></defs></symbol><symbol fill="none" viewBox="0 0 25 35" id="mouse_click" xmlns="http://www.w3.org/2000/svg"><path d="M4.662 11.097l7.282-7.282a9.052 9.052 0 00-7.282 7.282zM4.51 25.96A9.05 9.05 0 0013.55 35h2.41A9.05 9.05 0 0025 25.96v-9.04h-7.92a2.4 2.4 0 01-4.65 0H4.51v9.04zM12.346 13.554l-2.161 2.161h2.16v-2.16z" fill="#505861"/><path d="M13.55 11.497v4.821a1.205 1.205 0 102.41 0v-4.82a1.205 1.205 0 00-2.41 0zM4.51 15.466l9.643-9.642v-2.16h-.354l-9.288 9.288v2.514z" fill="#505861"/><path d="M17.165 11.497v4.219H25v-3.014a9.05 9.05 0 00-9.039-9.039h-.603v5.51a2.41 2.41 0 011.808 2.324zM12.345 11.497a2.41 2.41 0 011.808-2.325V7.528l-8.187 8.188H8.48l3.865-3.865v-.354zM6.318 3.663c.333 0 .603-.27.603-.602V.65a.603.603 0 00-1.205 0v2.41c0 .332.27.602.602.602zM3.482 4.09a.603.603 0 00.852-.853L2.629 1.533a.603.603 0 10-.852.852L3.482 4.09zM.895 6.676h2.41a.603.603 0 000-1.205H.895a.603.603 0 000 1.205z" fill="#505861"/></symbol><symbol clip-rule="evenodd" fill-rule="evenodd" stroke-linejoin="round" stroke-miterlimit="2" viewBox="0 0 24 24" id="star" xmlns="http://www.w3.org/2000/svg"><path d="M11.322 2.923a.754.754 0 011.356 0l2.65 5.44 6.022.829a.749.749 0 01.419 1.283c-1.61 1.538-4.382 4.191-4.382 4.191l1.069 5.952a.751.751 0 01-1.097.793L12 18.56l-5.359 2.851a.751.751 0 01-1.097-.793l1.07-5.952-4.382-4.191a.75.75 0 01.419-1.283l6.021-.829 2.65-5.44zM12 4.956L9.639 9.748l-5.246.719 3.848 3.643-.948 5.255L12 16.86l4.707 2.505-.951-5.236 3.851-3.662-5.314-.756z" fill-rule="nonzero"/></symbol><symbol fill-rule="evenodd" clip-rule="evenodd" viewBox="0 0 24 24" id="thin" xmlns="http://www.w3.org/2000/svg"><path d="M4 .755L18.374 12 4 23.219l.619.781L20 12 4.609 0 4 .755z"/></symbol></svg>